<?xml version="1.0" encoding="UTF-8"?><svg id="Layer_2" xmlns="http://www.w3.org/2000/svg" xmlns:xlink="http://www.w3.org/1999/xlink" viewBox="0 0 140.31 125.64"><defs><style>.cls-1{fill:url(#linear-gradient);}.cls-2{fill:url(#linear-gradient-8);}.cls-3{fill:url(#linear-gradient-3);}.cls-4{fill:url(#linear-gradient-4);}.cls-5{fill:url(#linear-gradient-2);}.cls-6{fill:url(#linear-gradient-6);}.cls-7{fill:url(#linear-gradient-7);}.cls-8{fill:url(#linear-gradient-5);}</style><linearGradient id="linear-gradient" x1="0" y1="62.82" x2="140.31" y2="62.82" gradientUnits="userSpaceOnUse"><stop offset="0" stopColor="#12819e"/><stop offset=".5" stopColor="#33baba"/><stop offset="1" stopColor="#8fbee6"/></linearGradient><linearGradient id="linear-gradient-2" x1="13.44" y1="93.53" x2="71.96" y2="93.53" xlink:href="#linear-gradient"/><linearGradient id="linear-gradient-3" x1="12.17" y1="65.82" x2="59.02" y2="65.82" xlink:href="#linear-gradient"/><linearGradient id="linear-gradient-4" x1="12.11" y1="40.33" x2="59.02" y2="40.33" xlink:href="#linear-gradient"/><linearGradient id="linear-gradient-5" x1="12.17" y1="48.85" x2="57.52" y2="48.85" xlink:href="#linear-gradient"/><linearGradient id="linear-gradient-6" x1="12.32" y1="57.32" x2="57.52" y2="57.32" xlink:href="#linear-gradient"/><linearGradient id="linear-gradient-7" x1="12.17" y1="31.81" x2="35.48" y2="31.81" xlink:href="#linear-gradient"/><linearGradient id="linear-gradient-8" x1="69.62" y1="44.05" x2="96.28" y2="44.05" xlink:href="#linear-gradient"/></defs><g id="Layer_1-2"><g id="W3tHhh.tif"><path class="cls-1" d="m103.96,88.27c0,.6,0,1.2,0,1.79,0,8.58-.02,17.15,0,25.73.01,3.84-1.35,6.94-4.86,8.71-1.26.64-2.81,1.02-4.22,1.02-28.37.06-56.74.05-85.11.04-6.13,0-9.75-3.61-9.76-9.71C0,84.64.02,53.44,0,22.23c0-1.46.44-2.61,1.49-3.65C7.17,12.94,12.81,7.27,18.44,1.59,19.5.51,20.69,0,22.22,0c24,.03,48,.01,72,.02,6.01,0,9.66,3.61,9.73,9.61.05,4.16.04,8.31,0,12.47-.01,1,.34,1.46,1.27,1.84,20.09,8.06,27.17,32.38,14.52,49.88-1.04,1.44-2.35,2.7-3.43,4.12-.26.34-.26.99-.17,1.46.08.44.48.81.67,1.24.87,1.94,1.92,3.25,4.46,3.31,2.64.06,4.69,1.79,6.03,4.09,3.95,6.77,7.91,13.54,11.73,20.38,2.66,4.77,1.1,9.81-3.66,12.56-1.91,1.11-3.79,2.28-5.73,3.33-4.91,2.68-9.93,1.24-12.72-3.6-3.65-6.34-7.26-12.69-10.96-19-1.95-3.32-2.23-6.56-.33-10.01.84-1.53-.84-2.31-1.23-3.49l-.43.06Zm-5.91-1.36c-10.02,1.3-18.8-1.23-26.23-7.78-7.48-6.59-11.17-15.05-11.16-25,.01-7.97,2.72-15.06,7.98-21.08,7.76-8.88,17.69-12.23,29.39-11.1,0-4.12,0-8.05,0-11.99,0-2.97-1-3.96-4.01-3.96-22.68,0-45.37,0-68.05,0-.55,0-1.1.06-1.74.09,0,3.19.03,6.18,0,9.18-.06,5.14-3.69,8.88-8.81,9.03-2.58.08-5.16.02-7.74.03-.55,0-1.11.06-1.75.1,0,.76,0,1.33,0,1.9,0,29.63,0,59.25,0,88.88,0,3.53.87,4.39,4.38,4.4,21.37,0,42.74,0,64.11,0,6.53,0,13.05,0,19.58,0,3.05,0,4.04-1.01,4.04-4.11,0-2.37,0-4.74,0-7.1v-21.49Zm-4.93-5.64c14.44.32,26.71-11.63,27.01-26.31.29-14.51-11.56-26.98-25.91-27.26-14.89-.3-27.26,11.29-27.59,25.85-.34,15.32,11.18,27.38,26.49,27.73Zm41.47,32c-.33-.92-.45-1.5-.73-1.99-3.79-6.61-7.59-13.22-11.42-19.8-1.1-1.89-2.63-2.27-4.55-1.21-1.98,1.09-3.92,2.25-5.86,3.42-1.87,1.13-2.29,2.64-1.19,4.56,3.75,6.57,7.53,13.13,11.34,19.67,1.05,1.8,2.63,2.24,4.42,1.25,2.11-1.17,4.24-2.34,6.24-3.69.78-.53,1.24-1.54,1.75-2.21ZM10.65,18.32c1.66,0,3.37.24,4.96-.09.94-.19,2.26-1.17,2.43-2,.37-1.76.11-3.66.11-5.45-2.5,2.5-4.96,4.97-7.51,7.53Zm97.98,65.2c.47.83.83,1.47,1.19,2.1,1.14,2.01,1.41,2.03,3.18.25-.7-1.16-1.42-2.35-2.19-3.62-.77.45-1.39.81-2.17,1.27Z"/><path class="cls-5" d="m66.61,106.82c.89,0,1.61-.05,2.33,0,1.82.15,3.01,1.36,3.02,3.02.01,1.65-1.2,2.84-3.04,2.97-.47.03-.95.02-1.42.02-16.53,0-33.05,0-49.58,0-.53,0-1.05.02-1.58-.03-1.73-.15-2.87-1.32-2.9-2.94-.02-1.59,1.1-2.82,2.83-3.02.78-.09,1.56-.08,2.55-.12,0-.69,0-1.3,0-1.92,0-8.84,0-17.68,0-26.52,0-3.12.94-4.05,4.05-4.06,2.37,0,4.74-.01,7.11,0,2.76.02,3.8,1.05,3.8,3.85.01,8.89,0,17.79,0,26.68,0,.62,0,1.24,0,1.8,1.4.57,1.45-.17,1.45-1.08-.02-4.74-.01-9.47,0-14.21,0-2.79,1-3.78,3.81-3.8,2.47-.01,4.95-.01,7.42,0,2.68.02,3.69,1.03,3.7,3.76.02,4.53,0,9.05,0,13.58,0,.37-.08.76.03,1.1.11.32.41.58.62.87.27-.28.77-.56.78-.86.09-1.36.04-2.73.04-4.1,0-7.05,0-14.1,0-21.15,0-2.8,1.01-3.82,3.8-3.84,2.47-.02,4.95-.02,7.42,0,2.67.02,3.73,1.07,3.73,3.76.02,8.05,0,16.1,0,24.15,0,.62,0,1.24,0,2.08Zm-38.91-.1v-26.36h-2.8v26.36h2.8Zm32.85-23.75h-2.76v23.7h2.76v-23.7Zm-16.43,23.75v-13.13h-2.8v13.13h2.8Z"/><path class="cls-3" d="m35.58,68.81c-6.42,0-12.83,0-19.25,0-.58,0-1.16,0-1.73-.09-1.46-.26-2.4-1.4-2.43-2.87-.02-1.43.94-2.65,2.37-2.93.51-.1,1.05-.08,1.57-.08,12.99,0,25.99,0,38.98,0,.58,0,1.18-.03,1.72.13,1.43.41,2.18,1.42,2.2,2.91.02,1.37-.92,2.53-2.3,2.81-.61.12-1.25.13-1.88.13-6.42,0-12.83,0-19.25,0Z"/><path class="cls-4" d="m35.54,43.3c-6.63,0-13.25.04-19.88-.05-.95-.01-2.13-.43-2.78-1.08-1.55-1.56-.6-4.18,1.56-4.67.61-.14,1.25-.15,1.88-.15,12.83,0,25.66,0,38.49,0,.42,0,.84-.01,1.26.03,1.84.18,2.99,1.38,2.95,3.06-.04,1.64-1.28,2.84-3.13,2.85-6.78.03-13.57.01-20.35.01Z"/><path class="cls-8" d="m34.8,51.83c-6.15,0-12.31,0-18.46,0-.58,0-1.16.02-1.73-.06-1.4-.21-2.4-1.42-2.43-2.88-.03-1.39.84-2.59,2.2-2.88.66-.14,1.36-.14,2.04-.14,12.31,0,24.61,0,36.92,0,.37,0,.74-.01,1.1.01,1.9.13,3.14,1.39,3.08,3.1-.06,1.62-1.34,2.84-3.16,2.84-6.52.03-13.04.01-19.56.01h0Z"/><path class="cls-6" d="m34.81,60.3c-6.32,0-12.63.02-18.95-.03-.85,0-1.99-.13-2.47-.66-.65-.72-1.2-1.97-1.05-2.87.13-.82,1.15-1.62,1.96-2.17.49-.33,1.32-.21,2-.21,12.37,0,24.74,0,37.1,0,.42,0,.84-.02,1.26.02,1.67.17,2.87,1.46,2.85,3.02-.03,1.55-1.28,2.84-2.97,2.88-3,.06-6,.03-9,.03-3.58,0-7.16,0-10.74,0Z"/><path class="cls-7" d="m23.76,34.82c-2.73,0-5.46.03-8.2,0-2.16-.03-3.43-1.22-3.4-3.08.03-1.74,1.33-2.91,3.41-2.93,5.52-.03,11.03-.04,16.55,0,2.01.01,3.34,1.29,3.35,3.02.01,1.73-1.32,2.95-3.37,2.97-2.78.04-5.57,0-8.35,0Z"/><path class="cls-2" d="m69.62,53.51c.29-12.38,11.14-22.95,23.46-22.83,1.91.02,3.18,1.19,3.2,2.95.01,1.78-1.22,2.91-3.31,3.01-8.76.43-15.47,6.18-17.13,14.7-.15.77-.19,1.56-.24,2.35-.17,2.49-1.25,3.79-3.13,3.74-1.9-.05-2.91-1.44-2.85-3.91Z"/></g></g></svg>