<?xml version="1.0" encoding="UTF-8"?><svg id="Layer_2" xmlns="http://www.w3.org/2000/svg" xmlns:xlink="http://www.w3.org/1999/xlink" viewBox="0 0 126.74 129.31"><defs><style>.cls-1{fill:url(#linear-gradient);}.cls-2{fill:url(#linear-gradient-3);}.cls-3{fill:url(#linear-gradient-2);}</style><linearGradient id="linear-gradient" x1="13.97" y1="53.27" x2="126.74" y2="53.27" gradientUnits="userSpaceOnUse"><stop offset="0" stopColor="#12819e"/><stop offset=".5" stopColor="#33baba"/><stop offset="1" stopColor="#8fbee6"/></linearGradient><linearGradient id="linear-gradient-2" x1="0" y1="102.44" x2="99.71" y2="102.44" xlink:href="#linear-gradient"/><linearGradient id="linear-gradient-3" x1="43.79" y1="63.22" x2="62.97" y2="63.22" xlink:href="#linear-gradient"/></defs><g id="Layer_1-2"><g id="UPqKpp.tif"><path class="cls-1" d="m66.83,21.26c3.7,1.74,1.61,5.03,2.49,7.63,3.11-.53,5.49,1.3,8,2.74,3.95,2.27,7.9,4.55,11.97,6.9-.92,1.61-1.77,3.1-2.7,4.72-.6-.32-1.11-.57-1.6-.85-4.21-2.43-8.38-4.91-12.63-7.27-.75-.41-2.26-.74-2.59-.37-.92,1.03-1.51,2.41-1.99,3.74-.1.28.72,1.07,1.26,1.39,4.55,2.7,9.17,5.31,13.7,8.05.94.57,1.8,1.48,2.38,2.43,1.71,2.76,3.62,5.29,6.5,6.94,3.91,2.24,8.11,2.24,12.32,1.34,3.55-.77,7.02-1.9,10.53-2.87.55-.15,1.09-.33,1.77-.54.59,1.72,1.13,3.31,1.76,5.15-8.93,2.96-17.69,6.23-27.41,2.74,5.03,15,5.68,29.47-2.79,43.43-.48-.3-.77-.47-1.05-.65-1.13-.75-2.26-1.5-3.44-2.28.09-.28.11-.52.23-.71,5.7-9.46,6.29-19.6,4.08-30.13-1.54-7.33-4.61-14-8.8-20.17-.42-.62-1.02-1.19-1.66-1.57-3.42-2.04-6.89-4.01-10.33-6-4.4-2.55-5.43-5.28-3.83-10.1.04-.13.02-.28.03-.56-3.27,0-6.52,0-9.77,0-.53,0-1.08.08-1.6-.01-3.29-.56-5.88.86-8.43,2.71-11.82,8.59-19.95,19.73-23.69,33.95-.05.18-.12.36-.26.75-1.73-.39-3.44-.78-5.31-1.21,3.83-15.23,12.17-27.27,24.38-36.75-1.36-3.27-.59-6.68-.64-10.02-.02-1.34,1.14-2.23,2.53-2.37.62-.06,1.24-.06,2.07-.1-.21-.61-.36-1.1-.54-1.58-1.86-5.06-3.73-10.11-5.58-15.18-1.09-3.01.02-4.56,3.27-4.56,9.28,0,18.57,0,27.85,0,3.29,0,4.37,1.57,3.24,4.69-1.27,3.5-2.57,7-3.93,10.71.58-.11.94-.15,1.29-.25,1.49-.44,2.98-.88,4.46-1.35,3.38-1.08,6.57-.88,9.89.63,11.57,5.3,23.22,10.42,34.86,15.57.65.29,1.49.38,2.2.27,2.06-.3,4.1-.74,6.38-1.17.34,1.79.67,3.52,1.04,5.43-2.99.54-5.83,1.12-8.7,1.53-.7.1-1.52-.27-2.21-.57-12.07-5.37-24.15-10.73-36.19-16.16-1.85-.83-3.6-.96-5.49-.32-2.34.78-4.71,1.46-7.32,2.26Zm-24.42-15.71c1.91,5.23,3.73,10.24,5.62,15.22.13.33.8.64,1.23.65,2.67.06,5.34-.02,8.01.06,1.02.03,1.43-.35,1.75-1.26,1.58-4.48,3.24-8.94,4.86-13.42.14-.38.22-.78.35-1.25h-21.82Zm21.1,21.46c-.54-.04-.97-.09-1.39-.09-5.82,0-11.65,0-17.47,0-.69,0-1.51-.21-1.48,1,.03,1.25.91.9,1.56.91,5.78.02,11.55.01,17.33,0,.47,0,.94-.05,1.46-.09v-1.73Z"/><path class="cls-3" d="m56.78,103.64c2.43,1.82,4.77,3.62,7.19,5.33.46.32,1.19.35,1.79.35,7.78.02,15.56.21,23.32-.05,6.26-.21,11.27,2.81,10.56,10.72-.16,1.75-.42,3.61-1.19,5.15-1.26,2.55-3.59,3.99-6.48,4.03-7.77.09-15.55.06-23.33.07-2.77,0-5.55-.13-8.31.03-3.28.19-6.31-.5-9.34-1.71-5.59-2.24-11.25-4.31-16.89-6.4-.8-.3-1.69-.45-2.54-.46-3.98-.05-7.97-.02-11.95-.02-.48,0-.95,0-1.59,0v3.96c-.57.06-.99.13-1.4.13-5.05,0-10.11-.02-15.16.02-1.03,0-1.45-.21-1.45-1.36.04-15.6.02-31.2.03-46.79,0-.33.06-.66.1-1.07h17.8v4.35c.67.03,1.18.08,1.7.08,4.28,0,8.55-.05,12.83.04,1.01.02,2.13.31,3.01.8,5.67,3.19,11.2,6.65,16.96,9.68,4.93,2.6,7.45,7.13,4.36,13.11Zm-22.04-6.57c.83.47,1.51.85,2.18,1.23,3.2,1.84,6.38,3.71,9.6,5.52,1.95,1.1,3.25.7,4.39-1.21.37-.63.74-1.26,1.09-1.89,1.23-2.17.91-3.43-1.26-4.71-4.32-2.53-8.76-4.86-12.94-7.59-3.4-2.21-6.87-3.3-10.93-2.95-2.88.25-5.81.05-8.78.05v29.61c.63,0,1.16,0,1.69,0,4.23,0,8.45-.03,12.68.02.9.01,1.84.19,2.68.5,6.83,2.54,13.63,5.14,20.45,7.68.8.3,1.69.48,2.53.48,10.25.03,20.5.02,30.76.02,4.95,0,5.3-.35,5.26-5.3-.02-2.77-.9-3.66-3.68-3.66-8.6,0-17.2-.03-25.8.02-1.45,0-2.62-.38-3.75-1.26-2.15-1.67-4.36-3.25-6.53-4.89-.55-.41-.96-.57-1.66-.15-3.01,1.8-6.05,1.76-9.09-.06-3.38-2.01-6.8-3.96-10.2-5.94-.45-.26-.88-.55-1.39-.87.92-1.59,1.77-3.05,2.7-4.67Zm-22.36,22.08v-38.02h-6.73v38.02h6.73Z"/><path class="cls-2" d="m56.16,85.3h-5.3c-.08-.13-.17-.22-.16-.29.3-2.26-.37-3.7-2.65-4.82-2.81-1.38-4.35-4.91-4.07-7.85,1.56,0,3.15-.04,4.73.04.27.01.57.52.75.85.29.54.48,1.12,1.02,1.63.05-.29.15-.57.15-.86.01-2.67-.03-5.35.03-8.02.02-.93-.27-1.49-1.04-2.02-3.1-2.15-5.44-4.83-5.79-8.82-.35-3.97,1.78-7.97,5.35-9.54,1.19-.53,1.64-1.15,1.47-2.39-.09-.61-.01-1.24-.01-2.07,1.69,0,3.23-.04,4.77.04.26.01.53.5.74.8.09.14.04.38.02.57-.23,1.6.25,2.5,1.87,3.32,3.16,1.59,4.74,4.45,4.93,8.17h-5.36c-.32-.78-.65-1.59-.98-2.4-.15.03-.3.06-.45.09,0,2.2.15,4.41-.04,6.6-.21,2.37.43,3.97,2.46,5.47,3.55,2.61,5.11,6.32,4.07,10.78-.69,2.96-2.45,5.19-5.26,6.4-1.07.46-1.36,1.04-1.25,2.08.07.71.01,1.43.01,2.23Zm-5.65-28.31v-5.41c-1.5,1.59-1.49,3.64,0,5.41Zm5.72,18.06c1.56-1.78,1.51-3.96,0-5.43v5.43Z"/></g></g></svg>