<?xml version="1.0" encoding="UTF-8"?><svg id="Layer_2" xmlns="http://www.w3.org/2000/svg" xmlns:xlink="http://www.w3.org/1999/xlink" viewBox="0 0 112.08 125.34"><defs><style>.cls-1{fill:url(#linear-gradient);}.cls-2{fill:url(#linear-gradient-3);}.cls-3{fill:url(#linear-gradient-4);}.cls-4{fill:url(#linear-gradient-2);}.cls-5{fill:url(#linear-gradient-5);}</style><linearGradient id="linear-gradient" x1="0" y1="116.02" x2="112.08" y2="116.02" gradientUnits="userSpaceOnUse"><stop offset="0" stopColor="#12819e"/><stop offset=".5" stopColor="#33baba"/><stop offset="1" stopColor="#8fbee6"/></linearGradient><linearGradient id="linear-gradient-2" x1="63.68" y1="25.63" x2="105.54" y2="25.63" xlink:href="#linear-gradient"/><linearGradient id="linear-gradient-3" x1="13" y1="95.26" x2="99.04" y2="95.26" xlink:href="#linear-gradient"/><linearGradient id="linear-gradient-4" x1="26.09" y1="76.81" x2="85.88" y2="76.81" xlink:href="#linear-gradient"/><linearGradient id="linear-gradient-5" x1="51.69" y1="33.23" x2="60.35" y2="33.23" xlink:href="#linear-gradient"/></defs><g id="Layer_1-2"><g id="_8lzjql.tif"><path class="cls-1" d="m55.86,125.33c-17.73,0-35.46,0-53.19,0-2.29,0-2.67-.37-2.67-2.64,0-2.61-.02-5.22,0-7.83.04-4.12,3.15-7.56,7.24-8,.73-.08,1.47-.09,2.21-.09,31.03,0,62.05.07,93.08-.06,6.19-.03,9.87,4.19,9.52,9.64-.14,2.21-.01,4.43-.03,6.65,0,1.84-.52,2.33-2.39,2.33-17.93,0-35.85,0-53.78,0Z"/><path class="cls-4" d="m63.68,42.47V8.78c.56-.03,1.09-.07,1.61-.07,11.22,0,22.45,0,33.67,0,4.03,0,6.54,2.5,6.55,6.55.02,6.94.02,13.88,0,20.82,0,3.89-2.61,6.46-6.5,6.46-11.27,0-22.55,0-33.82,0-.48,0-.96-.04-1.52-.07Z"/><path class="cls-2" d="m13.05,103.39c0-3.03-.13-5.93.03-8.83.21-3.82,3.64-7.07,7.46-7.33.59-.04,1.18-.04,1.77-.04,22.46,0,44.91.09,67.37-.06,5.86-.04,9.61,4.07,9.35,9.35-.11,2.25-.02,4.52-.02,6.9H13.05Z"/><path class="cls-3" d="m26.18,83.86c0-2.48-.24-4.91.05-7.27.49-3.89,3.84-6.78,7.75-6.8,14.67-.05,29.35-.05,44.02,0,3.93.01,7.25,2.9,7.72,6.81.29,2.36.05,4.78.05,7.26H26.18Z"/><path class="cls-5" d="m60.35,66.45h-8.58c-.03-.53-.08-1-.08-1.48,0-20-.02-39.99.04-59.99,0-1.11.37-2.36.95-3.3.9-1.46,2.88-1.99,4.45-1.51,1.82.56,2.9,1.8,3.17,3.69.07.48.05.98.05,1.48,0,19.85,0,39.7,0,59.55v1.56Z"/></g></g></svg>